# xmcd CD database file
#
# Track frame offsets:
#	183
#	22293
#	39650
#	65550
#	85040
#	114523
#	136920
#	161783
#
# Disc length: 2759 seconds
#
# Revision: 2
# Processed by: cddbd v1.5.2PL0 Copyright (c) Steve Scherf et al.
# Submitted via: CDex 1.70beta2
#
DISCID=6b0ac508
DTITLE=Steve Apirana - No Turning Back
DYEAR=1992
DGENRE=Blues
TTITLE0=That Same Old Road
TTITLE1=Hear Me Knocking
TTITLE2=Postscript
TTITLE3=No Turning Back
TTITLE4=Song for the Bride
TTITLE5=I Choose the Follow
TTITLE6=E Te Ariki
TTITLE7=It's No Miracle
EXTD=YEAR: 1992
EXTT0=
EXTT1=
EXTT2=
EXTT3=
EXTT4=
EXTT5=
EXTT6=
EXTT7=
PLAYORDER=
